<?xml version="1.0" encoding="UTF-8" standalone="no"?>
<svg
   width="600"
   height="530"
   version="1.1"
   id="svg1"
   xmlns="http://www.w3.org/2000/svg"
   xmlns:svg="http://www.w3.org/2000/svg">
  <defs
     id="defs1" />
  <path
     d="M 135.72,44.03 C 202.216,93.951 273.74,195.17 300,249.49 326.262,195.174 397.782,93.95 464.28,44.03 512.26,8.009 590,-19.862 590,68.825 c 0,17.712 -10.155,148.79 -16.111,170.07 -20.703,73.984 -96.144,92.854 -163.25,81.433 117.3,19.964 147.14,86.092 82.697,152.22 -122.39,125.59 -175.91,-31.511 -189.63,-71.766 -2.514,-7.3797 -3.6904,-10.832 -3.7077,-7.8964 -0.0174,-2.9357 -1.1937,0.51669 -3.7077,7.8964 -13.714,40.255 -67.233,197.36 -189.63,71.766 -64.444,-66.128 -34.605,-132.26 82.697,-152.22 -67.108,11.421 -142.55,-7.4491 -163.25,-81.433 -5.9562,-21.282 -16.111,-152.36 -16.111,-170.07 0,-88.687 77.742,-60.816 125.72,-24.795 z"
     fill="#1185fe"
     id="path1"
     style="fill:#ffffff;fill-opacity:1" />
</svg>
