<?xml version="1.0" encoding="UTF-8" standalone="no"?>
<svg
   width="241"
   height="194"
   viewBox="0 0 241 194"
   fill="none"
   version="1.1"
   id="svg7"
   xmlns="http://www.w3.org/2000/svg"
   xmlns:svg="http://www.w3.org/2000/svg">
  <defs
     id="defs7">
    <clipPath
       clipPathUnits="userSpaceOnUse"
       id="clipPath9">
      <path
         d="m 32.2469,67.9899 c 0,29.3269 1.8185,48.1941 11.3658,65.6991 10.9098,20.235 30.6891,27.964 53.199,27.964 h 7.0453 c 29.554,0 43.879,-14.324 51.836,-26.824 3.865,-6.367 7.273,-13.412 9.091,-22.282 l 1.363,-5.683 h 8.185 c 18.189,0 33.876,-14.774 33.876,-33.6474 v -3.4084 c 0,-21.1413 -13.184,-32.2854 -36.15,-35.0095 -12.956,-1.1341 -20.686,-1.5903 -57.52,-1.5903 -24.7778,0 -42.5108,0.228 -55.9228,2.2744 -18.8669,2.7306 -26.3745,13.4123 -26.3745,32.5071"
         fill="#ffffff"
         id="path9"
         style="display:none" />
      <path
         id="lpe_path-effect9"
         class="powerclip"
         d="M 10.1912,11.1589 H 230.255 V 183.707 H 10.1912 Z m 22.0557,56.831 c 0,29.3269 1.8185,48.1941 11.3658,65.6991 10.9098,20.235 30.6891,27.964 53.199,27.964 h 7.0453 c 29.554,0 43.879,-14.324 51.836,-26.824 3.865,-6.367 7.273,-13.412 9.091,-22.282 l 1.363,-5.683 h 8.185 c 18.189,0 33.876,-14.774 33.876,-33.6474 v -3.4084 c 0,-21.1413 -13.184,-32.2854 -36.15,-35.0095 -12.956,-1.1341 -20.686,-1.5903 -57.52,-1.5903 -24.7778,0 -42.5108,0.228 -55.9228,2.2744 -18.8669,2.7306 -26.3745,13.4123 -26.3745,32.5071" />
    </clipPath>
  </defs>
  <mask
     id="mask0_1_219"
     maskUnits="userSpaceOnUse"
     x="-1"
     y="0"
     width="242"
     height="194">
    <path
       d="M 240.469,0.958984 H -0.00585938 V 193.918 H 240.469 Z"
       fill="#ffffff"
       id="path1" />
  </mask>
  <g
     mask="url(#mask0_1_219)"
     id="g7">
    <path
       d="m 15.1975,67.7674 c 0,-30.2389 18.1891,-46.6034 39.5584,-49.334 16.1428,-2.0464 36.1501,-2.2745 59.7881,-2.2745 36.828,0 46.375,0.4562 60.015,1.8183 32.058,3.1804 50.696,22.9598 50.696,51.3805 v 3.6364 c 0,26.3746 -19.323,47.9719 -45.469,50.2399 -2.046,6.824 -5.227,13.64 -9.548,20.464 -10.003,15.458 -30.01,35.009 -66.838,35.009 h -7.2736 c -30.0109,0 -53.1987,-12.956 -67.0669,-36.6 C 16.7814,121.422 15.1912,98.4563 15.1912,67.7674"
       fill="#202020"
       id="path4"
       clip-path="url(#clipPath9)"
       style="fill:#ffffff;fill-opacity:1" />
    <path
       d="m 166.158,83.6801 c 0,2.7306 2.046,4.7771 5.683,4.7771 11.594,0 17.961,-6.5953 17.961,-17.5049 0,-10.9096 -6.367,-17.7328 -17.961,-17.7328 -3.637,0 -5.683,2.0462 -5.683,4.7768 v 25.6903 z"
       fill="#202020"
       id="path6"
       style="fill:#ffffff;fill-opacity:1" />
    <path
       d="m 54.5321,82.3198 c 0,13.4122 7.5011,25.0062 17.0486,34.1042 6.3671,6.138 16.3708,12.506 23.1878,16.598 2.0462,1.135 4.0926,1.819 6.3675,1.819 2.73,0 4.998,-0.684 6.823,-1.819 6.823,-4.092 16.82,-10.46 22.96,-16.598 9.775,-9.092 17.276,-20.6857 17.276,-34.1042 0,-14.5525 -10.909,-27.5083 -26.596,-27.5083 -9.319,0 -15.687,4.7767 -20.463,11.3657 C 96.8147,59.582 90.2259,54.8115 80.9001,54.8115 c -15.9146,0 -26.3745,12.9558 -26.3745,27.5083"
       fill="#FF5A16"
       id="path7"
       style="fill:#ffffff;fill-opacity:1" />
  </g>
</svg>
